<?xml version="1.0" encoding="UTF-8" standalone="no"?>
<!DOCTYPE svg PUBLIC "-//W3C//DTD SVG 1.1//EN" "http://www.w3.org/Graphics/SVG/1.1/DTD/svg11.dtd">
<svg width="100%" height="100%" viewBox="0 0 1435 125" version="1.1" xmlns="http://www.w3.org/2000/svg" xmlns:xlink="http://www.w3.org/1999/xlink" xml:space="preserve" xmlns:serif="http://www.serif.com/" style="fill-rule:evenodd;clip-rule:evenodd;stroke-linejoin:round;stroke-miterlimit:2;">
    <g transform="matrix(1,0,0,1,-245.384,-649.04)">
        <g>
            <path d="M245.384,752L245.384,649.76L260.936,649.76L260.936,752L245.384,752ZM343.1467,689.4888C343.946,687.0929 344.9874,684.9619 346.2707,683.096C348.364,680.0525 351.028,677.7196 354.2627,676.0974C357.4975,674.4751 361.1788,673.664 365.3068,673.664C370.7218,673.664 375.3205,674.7871 379.1027,677.0334C382.885,679.2796 385.7698,682.5676 387.7573,686.8974C389.7448,691.2271 390.7386,696.5022 390.7386,702.7227L390.7386,752L375.4746,752L375.4746,706.4375C375.4746,699.8135 374.2697,694.8312 371.86,691.4907C369.4502,688.1502 365.8071,686.48 360.9306,686.48C357.6846,686.48 354.8762,687.296 352.5055,688.928C350.1347,690.56 348.3062,692.9071 347.02,695.9694C345.7337,699.0316 345.0906,702.752 345.0906,707.1305L345.0906,752L330.5173,752L330.5173,707.1305C330.5173,700.583 329.4325,695.5044 327.2627,691.8946C325.093,688.2849 321.4161,686.48 316.2321,686.48C312.9876,686.48 310.1796,687.296 307.8081,688.928C305.4366,690.56 303.5886,692.9262 302.2641,696.0267C300.9396,699.1272 300.2773,702.8285 300.2773,707.1305L300.2773,752L285.0133,752L285.0133,675.392L298.8936,675.392L299.249,688.4303C300.053,686.4485 301.0438,684.6464 302.2213,683.024C304.3813,680.048 307.0307,677.744 310.1695,676.112C313.3082,674.48 316.7691,673.664 320.5521,673.664C327.1191,673.664 332.4568,675.5022 336.5653,679.1787C339.5705,681.8679 341.7643,685.3046 343.1467,689.4888ZM425.0678,741.7322L425.0678,773.6L409.8038,773.6L409.8038,675.392L424.2331,675.392L424.4769,686.998C426.3864,683.2563 429.0021,680.2806 432.3241,678.0706C436.7401,675.1329 441.8671,673.664 447.7051,673.664C455.1541,673.664 461.2977,675.5071 466.1359,679.1934C470.9742,682.8796 474.5839,687.7516 476.9652,693.8094C479.3464,699.8671 480.5371,706.496 480.5371,713.696C480.5371,720.8765 479.3416,727.5005 476.9506,733.568C474.5596,739.6355 470.9401,744.5124 466.0921,748.1986C461.2441,751.8849 455.0956,753.728 447.6466,753.728C443.7676,753.728 440.1481,753.0511 436.7881,751.6974C433.4281,750.3436 430.5721,748.4476 428.2201,746.0094C426.9658,744.7092 425.9151,743.2835 425.0678,741.7322ZM444.9106,740.5092C451.0156,740.5092 455.8347,738.1426 459.3679,733.4094C462.9012,728.6761 464.6678,722.105 464.6678,713.696C464.6678,705.287 462.9012,698.7159 459.3679,693.9826C455.8347,689.2494 451.0156,686.8827 444.9106,686.8827C440.8396,686.8827 437.3258,687.8814 434.3693,689.8786C431.4128,691.8759 429.1234,694.871 427.5012,698.864C425.8789,702.857 425.0678,707.801 425.0678,713.696C425.0678,719.591 425.8598,724.535 427.4438,728.528C429.0278,732.521 431.3172,735.5161 434.3119,737.5134C437.3067,739.5106 440.8396,740.5092 444.9106,740.5092ZM500.8187,687.8795L490.1649,687.8795L490.1649,675.392L500.8187,675.392L500.8187,670.4555C500.8187,664.145 502.5943,659.1181 506.1455,655.3749C509.6968,651.6316 515.2284,649.76 522.7404,649.76L536.3079,649.76L536.3079,662.2475L524.8959,662.2475C521.9199,662.2475 519.7119,663.0395 518.2719,664.6235C516.8319,666.2075 516.1119,668.4515 516.1119,671.3555L516.1119,675.392L535.2639,675.392L535.2639,687.8795L516.1119,687.8795L516.1119,752L500.8187,752L500.8187,687.8795ZM555.2446,687.8615L543.6099,687.8615L543.6099,675.392L555.2446,675.392L555.2446,657.4505L570.5086,657.4505L570.5086,675.392L590.8126,675.392L590.8126,687.8615L570.5086,687.8615L570.5086,730.1705C570.5086,733.703 571.2815,736.1461 572.8272,737.4999C574.373,738.8536 576.7396,739.5305 579.9271,739.5305L590.8126,739.5305L590.8126,752L576.5274,752C569.2509,752 563.8846,750.3249 560.4286,746.9746C556.9726,743.6244 555.2446,738.368 555.2446,731.2055L555.2446,687.8615ZM635.5099,753.728C628.0804,753.728 621.6488,752.0862 616.215,748.8027C610.7813,745.5192 606.5858,740.8681 603.6285,734.8494C600.6713,728.8306 599.1927,721.7795 599.1927,713.696C599.1927,705.6125 600.6713,698.5854 603.6285,692.6146C606.5858,686.6439 610.7427,681.9927 616.0992,678.6612C621.4557,675.3297 627.7722,673.664 635.0487,673.664C642.0192,673.664 648.1493,675.2622 653.439,678.4587C658.7288,681.6552 662.8328,686.2775 665.751,692.3255C668.6693,698.3735 670.1284,705.689 670.1284,714.272L670.1284,718.1307L615.0912,718.1307C615.5142,725.5992 617.5257,731.2104 621.1257,734.9641C624.7257,738.7179 629.5587,740.5947 635.6247,740.5947C640.1757,740.5947 643.9343,739.5485 646.9005,737.456C649.8668,735.3635 651.9357,732.512 653.1072,728.9015L669.0057,729.9972C666.9702,737.1207 662.9955,742.8567 657.0818,747.2052C651.168,751.5537 643.9774,753.728 635.5099,753.728ZM615.0912,706.6107L653.9419,706.6107C653.4619,699.7947 651.513,694.7694 648.0953,691.5346C644.6775,688.2999 640.3287,686.6825 635.0487,686.6825C629.6547,686.6825 625.2057,688.3719 621.7017,691.7506C618.1977,695.1294 615.9942,700.0827 615.0912,706.6107ZM699.8997,689.9143C701.0934,685.6792 702.8432,682.4224 705.1491,680.144C708.3554,676.976 712.6848,675.392 718.1373,675.392L725.452,675.392L725.452,689.0427L718.1958,689.0427C714.2973,689.0427 711.0666,689.6814 708.5039,690.9586C705.9411,692.2359 704.0118,694.1705 702.7158,696.7625C701.4198,699.3545 700.7718,702.7047 700.7718,706.8132L700.7718,752L685.5078,752L685.5078,675.392L699.4465,675.392L699.8997,689.9143ZM795.2221,689.4888C796.0214,687.0929 797.0627,684.9619 798.3461,683.096C800.4393,680.0525 803.1033,677.7196 806.3381,676.0974C809.5728,674.4751 813.2542,673.664 817.3822,673.664C822.7972,673.664 827.3958,674.7871 831.1781,677.0334C834.9603,679.2796 837.8452,682.5676 839.8327,686.8974C841.8202,691.2271 842.8139,696.5022 842.8139,702.7227L842.8139,752L827.5499,752L827.5499,706.4375C827.5499,699.8135 826.3451,694.8312 823.9353,691.4907C821.5256,688.1502 817.8824,686.48 813.0059,686.48C809.7599,686.48 806.9516,687.296 804.5808,688.928C802.2101,690.56 800.3816,692.9071 799.0953,695.9694C797.8091,699.0316 797.1659,702.752 797.1659,707.1305L797.1659,752L782.5927,752L782.5927,707.1305C782.5927,700.583 781.5078,695.5044 779.3381,691.8946C777.1683,688.2849 773.4914,686.48 768.3074,686.48C765.0629,686.48 762.2549,687.296 759.8834,688.928C757.5119,690.56 755.6639,692.9262 754.3394,696.0267C753.0149,699.1272 752.3527,702.8285 752.3527,707.1305L752.3527,752L737.0887,752L737.0887,675.392L750.9689,675.392L751.3244,688.4303C752.1283,686.4485 753.1191,684.6464 754.2967,683.024C756.4567,680.048 759.1061,677.744 762.2448,676.112C765.3836,674.48 768.8444,673.664 772.6274,673.664C779.1944,673.664 784.5322,675.5022 788.6407,679.1787C791.6458,681.8679 793.8396,685.3046 795.2221,689.4888ZM863.5779,752L863.5779,675.392L878.8419,675.392L878.8419,752L863.5779,752ZM863.2899,664.304L863.2899,649.04L879.1299,649.04L879.1299,664.304L863.2899,664.304ZM915.6476,688.7233C916.5079,686.4533 917.5977,684.4624 918.917,682.7506C921.3072,679.6494 924.2255,677.3596 927.6717,675.8814C931.118,674.4031 934.8571,673.664 938.8891,673.664C944.6491,673.664 949.4446,674.9311 953.2756,677.4654C957.1066,679.9996 959.9915,683.4507 961.9302,687.8187C963.869,692.1867 964.8384,697.1547 964.8384,702.7227L964.8384,752L949.5744,752L949.5744,707.4185C949.5744,702.9065 949.0895,699.0999 948.1197,695.9986C947.15,692.8974 945.5757,690.5356 943.397,688.9134C941.2182,687.2911 938.3431,686.48 934.7716,686.48C929.3761,686.48 925.0081,688.2657 921.6676,691.8372C918.3271,695.4087 916.6569,700.6025 916.6569,707.4185L916.6569,752L901.3929,752L901.3929,675.392L915.2731,675.392L915.6476,688.7233ZM999.169,741.7322L999.169,773.6L983.905,773.6L983.905,675.392L998.3342,675.392L998.578,686.998C1000.4875,683.2563 1003.1032,680.2806 1006.4252,678.0706C1010.8412,675.1329 1015.9682,673.664 1021.8062,673.664C1029.2552,673.664 1035.3988,675.5071 1040.2371,679.1934C1045.0753,682.8796 1048.6851,687.7516 1051.0663,693.8094C1053.4476,699.8671 1054.6382,706.496 1054.6382,713.696C1054.6382,720.8765 1053.4427,727.5005 1051.0517,733.568C1048.6607,739.6355 1045.0412,744.5124 1040.1932,748.1986C1035.3452,751.8849 1029.1967,753.728 1021.7477,753.728C1017.8687,753.728 1014.2492,753.0511 1010.8892,751.6974C1007.5292,750.3436 1004.6732,748.4476 1002.3212,746.0094C1001.067,744.7092 1000.0162,743.2835 999.169,741.7322ZM1019.0117,740.5092C1025.1167,740.5092 1029.9358,738.1426 1033.4691,733.4094C1037.0023,728.6761 1038.769,722.105 1038.769,713.696C1038.769,705.287 1037.0023,698.7159 1033.4691,693.9826C1029.9358,689.2494 1025.1167,686.8827 1019.0117,686.8827C1014.9407,686.8827 1011.427,687.8814 1008.4705,689.8786C1005.514,691.8759 1003.2246,694.871 1001.6023,698.864C999.9801,702.857 999.169,707.801 999.169,713.696C999.169,719.591 999.961,724.535 1001.545,728.528C1003.129,732.521 1005.4183,735.5161 1008.4131,737.5134C1011.4078,739.5106 1014.9407,740.5092 1019.0117,740.5092ZM1101.5823,753.728C1094.2863,753.728 1087.8974,752.0862 1082.4157,748.8027C1076.9339,745.5192 1072.6904,740.8681 1069.6852,734.8494C1066.6799,728.8306 1065.1773,721.7795 1065.1773,713.696C1065.1773,705.536 1066.6799,698.4702 1069.6852,692.4987C1072.6904,686.5272 1076.9339,681.8952 1082.4157,678.6027C1087.8974,675.3102 1094.2863,673.664 1101.5823,673.664C1108.8783,673.664 1115.2477,675.3102 1120.6904,678.6027C1126.1332,681.8952 1130.3572,686.5272 1133.3624,692.4987C1136.3677,698.4702 1137.8703,705.536 1137.8703,713.696C1137.8703,721.7795 1136.3677,728.8306 1133.3624,734.8494C1130.3572,740.8681 1126.1332,745.5192 1120.6904,748.8027C1115.2477,752.0862 1108.8783,753.728 1101.5823,753.728ZM1101.5823,740.5092C1108.0518,740.5092 1113.0723,738.1381 1116.6438,733.3959C1120.2153,728.6536 1122.0011,722.087 1122.0011,713.696C1122.0011,705.3245 1120.2153,698.7627 1116.6438,694.0107C1113.0723,689.2587 1108.0518,686.8827 1101.5823,686.8827C1095.1113,686.8827 1090.0709,689.2587 1086.4612,694.0107C1082.8514,698.7627 1081.0466,705.3245 1081.0466,713.696C1081.0466,722.087 1082.8514,728.6536 1086.4612,733.3959C1090.0709,738.1381 1095.1113,740.5092 1101.5823,740.5092ZM1167.6411,689.9143C1168.8348,685.6792 1170.5847,682.4224 1172.8906,680.144C1176.0968,676.976 1180.4262,675.392 1185.8787,675.392L1193.1934,675.392L1193.1934,689.0427L1185.9372,689.0427C1182.0387,689.0427 1178.8081,689.6814 1176.2453,690.9586C1173.6826,692.2359 1171.7532,694.1705 1170.4572,696.7625C1169.1612,699.3545 1168.5132,702.7047 1168.5132,706.8132L1168.5132,752L1153.2492,752L1153.2492,675.392L1167.1879,675.392L1167.6411,689.9143ZM1211.7129,687.8615L1200.0781,687.8615L1200.0781,675.392L1211.7129,675.392L1211.7129,657.4505L1226.9769,657.4505L1226.9769,675.392L1247.2809,675.392L1247.2809,687.8615L1226.9769,687.8615L1226.9769,730.1705C1226.9769,733.703 1227.7498,736.1461 1229.2955,737.4999C1230.8413,738.8536 1233.2079,739.5305 1236.3954,739.5305L1247.2809,739.5305L1247.2809,752L1232.9956,752C1225.7191,752 1220.3529,750.3249 1216.8969,746.9746C1213.4409,743.6244 1211.7129,738.368 1211.7129,731.2055L1211.7129,687.8615ZM1308.6591,740.1809C1307.7732,742.0408 1306.552,743.7725 1304.9956,745.376C1302.4418,748.007 1299.2404,750.0567 1295.3914,751.5252C1291.5424,752.9937 1287.3327,753.728 1282.7622,753.728C1274.8332,753.728 1268.4781,751.8942 1263.6968,748.2267C1258.9156,744.5592 1256.5249,739.4427 1256.5249,732.8772C1256.5249,726.2727 1258.5169,721.103 1262.5009,717.368C1266.4849,713.633 1272.6627,710.969 1281.0342,709.376L1307.3569,704.3652C1307.3569,698.4132 1305.9747,693.9586 1303.2102,691.0014C1300.4457,688.0441 1296.3372,686.5655 1290.8847,686.5655C1286.0082,686.5655 1282.1633,687.665 1279.3501,689.864C1276.5368,692.063 1274.6217,695.2355 1273.6047,699.3815L1257.8209,698.4027C1259.2804,690.7617 1262.8808,684.7284 1268.6221,680.3026C1274.3633,675.8769 1281.7842,673.664 1290.8847,673.664C1301.2527,673.664 1309.1341,676.4191 1314.5288,681.9294C1319.9236,687.4396 1322.6209,695.1867 1322.6209,705.1707L1322.6209,734.9495C1322.6209,736.832 1322.9524,738.1381 1323.6154,738.8679C1324.2784,739.5976 1325.3299,739.9625 1326.7699,739.9625L1329.5059,739.9625L1329.5059,752C1329.0259,752.135 1328.2482,752.2456 1327.1727,752.3319C1326.0972,752.4181 1324.9932,752.4612 1323.8607,752.4612C1320.5382,752.4612 1317.7156,751.9235 1315.3928,750.848C1313.0701,749.7725 1311.3229,748.0205 1310.1514,745.592C1309.4348,744.1063 1308.9373,742.3026 1308.6591,740.1809ZM1285.2394,741.6905C1289.8279,741.6905 1293.7688,740.7976 1297.0621,739.0119C1300.3553,737.2261 1302.8944,734.7541 1304.6794,731.5959C1306.4644,728.4376 1307.3569,724.8327 1307.3569,720.7812L1307.3569,715.8852L1285.0099,720.2052C1280.3824,721.0887 1277.1229,722.447 1275.2314,724.28C1273.3399,726.113 1272.3942,728.4987 1272.3942,731.4372C1272.3942,734.6817 1273.5271,737.2017 1275.7928,738.9972C1278.0586,740.7927 1281.2074,741.6905 1285.2394,741.6905ZM1358.0464,752C1353.0154,752 1348.9737,750.704 1345.9212,748.112C1342.8687,745.52 1341.3424,741.3822 1341.3424,735.6987L1341.3424,649.76L1356.6064,649.76L1356.6064,734.2587C1356.6064,736.0257 1357.0575,737.3461 1357.9598,738.2199C1358.862,739.0936 1360.1577,739.5305 1361.8467,739.5305L1367.9824,739.5305L1367.9824,752L1358.0464,752Z"/>
            <path d="M1481.9106,705.3385C1486.404,705.9197 1489.9622,707.3135 1492.5852,709.52C1496.1462,712.5155 1498.1382,716.9892 1498.5612,722.9412L1500.98,752L1475.4357,752L1473.764,727.1172C1473.5345,723.2772 1472.426,720.4452 1470.4385,718.6212C1468.451,716.7972 1465.019,715.8852 1460.1425,715.8852L1440.9612,715.8852L1440.9612,752L1415.9052,752L1415.9052,649.76L1462.7052,649.76C1470.2892,649.76 1476.8844,651.008 1482.4906,653.504C1488.0969,656 1492.4311,659.5182 1495.4934,664.0587C1498.5556,668.5992 1500.0867,673.961 1500.0867,680.144C1500.0867,684.905 1499.1414,689.1241 1497.2506,692.8014C1495.3599,696.4786 1492.6959,699.4884 1489.2586,701.8306C1487.0571,703.3308 1484.6078,704.5001 1481.9106,705.3385ZM1440.9612,695.3787L1458.8757,695.3787C1463.8857,695.3787 1467.7347,694.2747 1470.4227,692.0667C1473.1107,689.8587 1474.4547,686.7485 1474.4547,682.736C1474.4547,678.6275 1473.1014,675.5221 1470.3946,673.4199C1467.6879,671.3176 1463.7425,670.2665 1458.5585,670.2665L1440.9612,670.2665L1440.9612,695.3787ZM1540.8396,731.4935L1586.6608,731.4935L1586.6608,752L1515.7836,752L1515.7836,649.76L1540.8396,649.76L1540.8396,731.4935ZM1597.2875,752L1597.2875,649.76L1639.6528,649.76C1652.2288,649.76 1662.0879,652.8031 1669.2302,658.8894C1676.3724,664.9756 1679.9435,673.328 1679.9435,683.9465C1679.9435,690.935 1678.3307,696.9972 1675.1049,702.1332C1671.8792,707.2692 1667.252,711.2195 1661.2235,713.984C1655.195,716.7485 1648.0048,718.1307 1639.6528,718.1307L1622.3435,718.1307L1622.3435,752L1597.2875,752ZM1622.3435,697.6265L1637.9248,697.6265C1642.9933,697.6265 1646.9915,696.4745 1649.9195,694.1705C1652.8475,691.8665 1654.3115,688.4585 1654.3115,683.9465C1654.3115,679.472 1652.8667,676.0734 1649.9769,673.7506C1647.0872,671.4279 1643.0698,670.2665 1637.9248,670.2665L1622.3435,670.2665L1622.3435,697.6265Z" style="fill:#871d33;"/>
        </g>
    </g>
</svg>
